<svg xmlns="http://www.w3.org/2000/svg" viewBox="0 0 100 100" width="100%" height="100%">
  <defs>
    <radialGradient id="tomatoGrad" cx="38%" cy="38%" r="62%">
      <stop offset="0%" stop-color="#ff6b81" />
      <stop offset="50%" stop-color="#f43f5e" />
      <stop offset="85%" stop-color="#e11d48" />
      <stop offset="100%" stop-color="#9f1239" />
    </radialGradient>
    <filter id="softShadow" x="-10%" y="-10%" width="120%" height="120%">
      <feDropShadow dx="0" dy="4" stdDeviation="4" flood-color="#881337" flood-opacity="0.25" />
    </filter>
  </defs>
  
  <!-- Tomato Shadow & Main Red Fruit -->
  <circle cx="50" cy="54" r="38" fill="url(#tomatoGrad)" filter="url(#softShadow)" />

  <!-- Glossy Highlight -->
  <ellipse cx="36" cy="38" rx="11" ry="6" fill="#ffffff" opacity="0.35" transform="rotate(-30 36 38)" />

  <!-- Stem -->
  <path d="M50 22 C48 10, 53 10, 50 22" stroke="#15803d" stroke-width="4.5" stroke-linecap="round" fill="none" />

  <!-- Leaves / Calyx -->
  <path d="M50 22 Q40 24 28 20 Q42 27 46 29 Q40 37 38 42 Q49 34 50 31 Q51 34 62 42 Q60 37 54 29 Q58 27 72 20 Q60 24 50 22 Z" fill="#22c55e" />
</svg>
